<svg xmlns="http://www.w3.org/2000/svg" width="46" height="81" viewBox="0 0 46 81">
    <g fill="#2D2D2D" fill-rule="evenodd">
        <path d="M44.143 27.7L25.076 15.73a2.889 2.889 0 0 0-3.976.902 2.872 2.872 0 0 0 .905 3.966l17.264 10.838c-2.705 6.783-9.34 11.366-16.802 11.366H7.51a1.3 1.3 0 0 1-1.302-1.299V30.826a2.881 2.881 0 0 0-3.166-2.862c-1.499.142-2.6 1.484-2.6 2.986v11.519c0 3.36 2.731 6.084 6.1 6.084h15.925c10.772 0 20.245-7.242 23.034-17.61a2.873 2.873 0 0 0-1.358-3.243"/>
        <path d="M1.764 20.434L19.13 31.508a2.85 2.85 0 0 0 3.939-.877 2.864 2.864 0 0 0-.875-3.947L6.148 16.452V7.708a1.29 1.29 0 0 1 1.289-1.291H22.24c7.407 0 14.138 4.665 16.75 11.607a2.85 2.85 0 0 0 3.906 1.57c1.348-.647 1.929-2.288 1.395-3.687C40.819 6.807 31.971.699 22.24.699H6.479C3.145.7.443 3.407.443 6.748v11.15c0 .031.007.06.008.091-.01.955.45 1.894 1.313 2.445M.443 66.167V55.902h3.492c.823 0 1.576.127 2.261.381s1.264.606 1.735 1.055c.472.449.838.992 1.097 1.63.259.637.388 1.332.388 2.084 0 .753-.124 1.444-.374 2.074-.249.63-.605 1.17-1.067 1.62-.462.448-1.035.798-1.717 1.047-.682.25-1.442.374-2.28.374H.443zm2.062-1.813h1.343a3.74 3.74 0 0 0 1.394-.254c.426-.17.785-.401 1.078-.695a3.1 3.1 0 0 0 .682-1.048c.162-.404.243-.84.243-1.305 0-.635-.139-1.206-.417-1.714a3.004 3.004 0 0 0-1.165-1.189 3.337 3.337 0 0 0-1.685-.427H2.505v6.632zm15.02-1.778c0 .334-.018.56-.052.677h-5.089c.116.419.338.748.664.988.327.24.723.362 1.187.367a2.156 2.156 0 0 0 1.736-.797l1.263 1.142a3.5 3.5 0 0 1-1.292.97c-.533.243-1.148.364-1.845.364-.706 0-1.343-.15-1.909-.448a3.315 3.315 0 0 1-1.34-1.288c-.326-.56-.49-1.199-.49-1.919 0-.526.093-1.017.276-1.47.184-.454.435-.84.752-1.157a3.365 3.365 0 0 1 1.143-.745 3.804 3.804 0 0 1 1.43-.268c.702 0 1.324.154 1.866.462a3.2 3.2 0 0 1 1.256 1.277c.296.543.443 1.158.443 1.845zm-3.5-1.919c-.402 0-.747.106-1.035.318-.288.211-.487.517-.599.917h3.202c-.102-.386-.286-.688-.552-.907-.266-.219-.605-.328-1.016-.328zm7.026 5.63c-1.152 0-2.132-.346-2.94-1.037l.944-1.305c.605.55 1.275.825 2.01.825.277 0 .494-.054.654-.162.16-.108.24-.25.24-.424a.367.367 0 0 0-.145-.285 1.509 1.509 0 0 0-.403-.23c-.172-.07-.43-.16-.774-.268a8.207 8.207 0 0 1-.584-.211 5.597 5.597 0 0 1-.526-.25 2.272 2.272 0 0 1-.81-.717 1.608 1.608 0 0 1-.236-.5 2.247 2.247 0 0 1-.08-.614c0-.419.115-.79.345-1.112.23-.322.542-.57.937-.744a3.268 3.268 0 0 1 1.332-.26c.508 0 .975.07 1.401.21.426.142.845.368 1.256.678l-.944 1.383a2.912 2.912 0 0 0-.86-.561 2.292 2.292 0 0 0-.875-.187.905.905 0 0 0-.494.138.437.437 0 0 0-.217.391c0 .141.086.268.257.381.172.113.45.24.832.381.803.287 1.34.515 1.611.684.47.283.75.659.843 1.13.029.14.043.298.043.472 0 .653-.24 1.183-.722 1.587-.482.404-1.18.607-2.095.607zm5-8.17c-.217 0-.419-.051-.605-.155a1.16 1.16 0 0 1-.44-.42 1.105 1.105 0 0 1-.16-.582c0-.315.118-.585.353-.81.235-.227.519-.34.853-.34.33 0 .612.113.85.34.237.225.355.495.355.81 0 .32-.118.593-.356.819a1.19 1.19 0 0 1-.85.338zm-.972 8.05v-7.055h1.946v7.055h-1.946zm8.783-7.055h1.946v6.244c0 .451-.041.865-.123 1.241a3.473 3.473 0 0 1-.407 1.04 2.81 2.81 0 0 1-.719.808c-.29.222-.65.393-1.078.515a5.336 5.336 0 0 1-1.463.184c-1.132 0-2.125-.238-2.976-.713l.45-1.594c.397.212.781.374 1.154.487.373.113.775.17 1.205.17.654 0 1.16-.15 1.518-.445.358-.297.537-.67.537-1.122v-.713h-.036c-.538.55-1.242.826-2.113.826-.663 0-1.257-.146-1.782-.438a3.142 3.142 0 0 1-1.235-1.23c-.297-.53-.446-1.13-.446-1.803 0-.682.144-1.296.432-1.841a3.183 3.183 0 0 1 1.201-1.277 3.31 3.31 0 0 1 1.728-.459c.417 0 .812.072 1.187.215.375.144.703.354.984.632h.036v-.727zm-1.75 5.214c.538 0 .978-.172 1.322-.515.344-.344.515-.781.515-1.313 0-.531-.175-.961-.526-1.29-.35-.33-.788-.494-1.31-.494-.542 0-.985.167-1.329.5-.344.334-.515.767-.515 1.298 0 .222.03.427.09.618a1.642 1.642 0 0 0 .654.878c.152.104.322.182.508.236.186.054.384.082.592.082zm9.524-5.334a3.2 3.2 0 0 1 1.071.166c.312.11.588.281.828.511.24.23.422.541.548.932.126.39.189.85.189 1.382v4.19h-1.946v-3.717c0-.649-.114-1.105-.341-1.369-.228-.263-.578-.395-1.053-.395-.503 0-.904.167-1.201.501-.298.334-.447.81-.447 1.425v3.549h-1.946v-7.055h1.946v.91h.022c.295-.334.645-.589 1.049-.765a3.17 3.17 0 0 1 1.281-.265zM3.736 80.7a5.151 5.151 0 0 1-2.002-.406A4.967 4.967 0 0 1 0 79.07l.82-.993c.372.454.82.8 1.342 1.04a3.783 3.783 0 0 0 1.588.358c.653 0 1.176-.143 1.57-.43.395-.288.592-.68.592-1.178 0-.536-.22-.958-.66-1.267-.257-.184-.75-.41-1.48-.681l-.007-.007H3.75l-.007-.008h-.007l-.008-.007h-.014l-.007-.007h-.015l-.007-.007h-.007l-.008-.008h-.014l-.007-.007H3.64l-.007-.007H3.62l-.008-.007h-.014l-.007-.008h-.008l-.007-.007h-.014l-.015-.007c-.266-.101-.49-.188-.67-.26a9.93 9.93 0 0 1-.632-.283 4.765 4.765 0 0 1-.598-.337 4.486 4.486 0 0 1-.497-.398 2.129 2.129 0 0 1-.407-.49A2.597 2.597 0 0 1 .4 72.762c0-.517.141-.989.424-1.416a2.908 2.908 0 0 1 1.165-1.007 3.632 3.632 0 0 1 1.632-.366 4.798 4.798 0 0 1 1.726.312c.57.212 1.107.519 1.61.92l-.776 1a4.72 4.72 0 0 0-1.287-.769 3.534 3.534 0 0 0-1.28-.26c-.334 0-.64.056-.918.17a1.613 1.613 0 0 0-.686.521c-.179.235-.268.511-.268.83-.005.473.225.862.689 1.166.256.174.764.405 1.523.695l.007.007h.008l.007.008h.015l.007.007c.87.338 1.446.582 1.726.731.672.358 1.12.8 1.342 1.326.13.314.196.676.196 1.086 0 .377-.064.728-.192 1.054a2.528 2.528 0 0 1-.526.837 3.323 3.323 0 0 1-.78.598c-.297.166-.618.29-.961.369-.343.08-.699.12-1.066.12zm8.956-7.403c.818 0 1.46.247 1.926.742.467.495.7 1.24.7 2.235v4.339h-1.204v-3.999c0-1.477-.59-2.216-1.77-2.216-.725 0-1.297.227-1.715.68-.419.455-.628 1.085-.628 1.891v3.636H8.797V69.682h1.204v4.875h.03a3.05 3.05 0 0 1 1.145-.941c.228-.107.468-.186.722-.24a3.87 3.87 0 0 1 .794-.08zm5.135-1.253a.828.828 0 0 1-.61-.246.809.809 0 0 1-.246-.594c0-.237.082-.437.246-.602a.828.828 0 0 1 .61-.246.846.846 0 0 1 .74.42c.077.13.116.273.116.428 0 .231-.084.43-.25.594a.832.832 0 0 1-.606.246zm-.61 8.561v-7.221h1.197v7.221h-1.197zm3.539 0v-6.178h-.885v-1.043h.885V71.92c0-.768.175-1.349.525-1.742.351-.394.853-.59 1.506-.59.614 0 1.175.151 1.682.456l-.268 1.035c-.483-.246-.904-.369-1.262-.369-.658 0-.987.442-.987 1.326v1.347h2.053v1.043h-2.053v6.178h-1.196zm6.273.094c-1.253 0-1.88-.748-1.88-2.245v-4.027h-.92v-1.043h.92v-2.47l1.205-.13v2.6h2.394v1.043h-2.394v3.846c0 .454.065.783.196.989.13.205.36.307.689.307.382 0 .788-.123 1.219-.369l.319 1.05c-.155.087-.303.16-.443.221-.14.06-.326.114-.558.16a3.852 3.852 0 0 1-.747.068z"/>
    </g>
</svg>
