<?xml version="1.0" encoding="UTF-8"?>
<svg width="112px" height="96px" viewBox="0 0 112 96" version="1.1" xmlns="http://www.w3.org/2000/svg" xmlns:xlink="http://www.w3.org/1999/xlink">
    <!-- Generator: Sketch 56 (81588) - https://sketch.com -->
    <title>Group Copy 5</title>
    <desc>Created with Sketch.</desc>
    <g id="Page-1" stroke="none" stroke-width="1" fill="none" fill-rule="evenodd">
        <g id="Artboard-2-Copy-3" transform="translate(-319.000000, -704.000000)">
            <g id="1" transform="translate(262.000000, 107.000000)">
                <g id="Group-Copy-5" transform="translate(57.791999, 597.407990)">
                    <g id="Group-2-Copy-2">
                        <rect id="Rectangle" fill="#EDF2FF" fill-rule="nonzero" x="0" y="0" width="110.879998" height="95.4239984" rx="5.37599991"></rect>
                        <g id="Group-20-Copy" transform="translate(38.975999, 20.832000)">
                            <circle id="Oval" stroke="#0064FF" stroke-width="2.8449789" fill="#0064FF" fill-rule="nonzero" cx="16.3295986" cy="16.3295986" r="16.3295986"></circle>
                            <g id="noun_Location_581229" transform="translate(8.064000, 6.720000)">
                                <g id="Group">
                                    <path d="M8.0639993,15.0759971 C7.86736178,15.0759971 7.6825101,14.9890202 7.56589227,14.8417393 C7.35808921,14.5802288 2.48123055,8.39443117 2.48123055,5.21861439 C2.48123055,2.34141832 4.9860328,0 8.0639993,0 C11.1425861,0 13.646768,2.34141832 13.646768,5.21861439 C13.646768,8.39443117 8.76990939,14.5802288 8.56210633,14.8417393 C8.4454885,14.9890202 8.26063682,15.0759971 8.0639993,15.0759971 Z" id="Shape" fill="#FFFFFF" fill-rule="nonzero"></path>
                                    <path d="M8.12447929,2.20341496 C7.29061137,2.20341496 6.61247942,2.82756125 6.61247942,3.59504547 C6.61247942,4.36252969 7.29061137,4.98667597 8.12447929,4.98667597 C8.95834722,4.98667597 9.63647916,4.36252969 9.63647916,3.59504547 C9.63647916,2.82756125 8.95834722,2.20341496 8.12447929,2.20341496 Z" id="Shape" fill="#0064FF" fill-rule="nonzero"></path>
                                    <path d="M8.0639993,18.5550734 C4.15482056,18.5550734 0,17.4232139 0,15.3247511 C0,14.2839274 1.04583868,13.3828467 2.94398005,12.7867649 C3.26902125,12.6864516 3.62073569,12.8482286 3.72928952,13.152068 C3.83846367,13.4553274 3.66353691,13.78468 3.33911602,13.8867329 C1.79020784,14.372064 1.24061528,14.9652465 1.24061528,15.3247511 C1.24061528,16.1690069 3.89863351,17.3953813 8.0639993,17.3953813 C12.2293651,17.3953813 14.8873833,16.1690069 14.8873833,15.3247511 C14.8873833,14.9652465 14.3371704,14.372064 12.7882623,13.886153 C12.4638414,13.7835203 12.2882943,13.4553274 12.3974685,13.1514881 C12.5072629,12.8482286 12.8589773,12.6852919 13.1833982,12.7861851 C15.0821599,13.3828467 16.1279986,14.2845073 16.1279986,15.3247511 C16.1279986,17.4232139 11.973178,18.5550734 8.0639993,18.5550734 Z" id="Path" fill="#FFFFFF"></path>
                                </g>
                            </g>
                        </g>
                        <text id="Geofencing" fill="#181818" font-family="RobotoCondensed-Bold, Roboto Condensed" font-size="12.0959998" font-style="condensed" font-weight="bold">
                            <tspan x="28.2239995" y="74.839999">Geofencing</tspan>
                        </text>
                    </g>
                </g>
            </g>
        </g>
    </g>
</svg>