<?xml version="1.0" encoding="UTF-8"?>
<svg width="165px" height="142px" viewBox="0 0 165 142" version="1.1" xmlns="http://www.w3.org/2000/svg" xmlns:xlink="http://www.w3.org/1999/xlink">
    <!-- Generator: Sketch 56 (81588) - https://sketch.com -->
    <title>Group</title>
    <desc>Created with Sketch.</desc>
    <g id="Page-1" stroke="none" stroke-width="1" fill="none" fill-rule="evenodd">
        <g id="Artboard-2-Copy" transform="translate(-118.000000, -6032.000000)">
            <g id="1" transform="translate(89.000000, 5378.000000)">
                <g id="Group" transform="translate(29.000000, 654.000000)">
                    <g id="Group-2-Copy-2">
                        <rect id="Rectangle" fill="#FFFFFF" fill-rule="nonzero" x="0" y="0" width="165" height="142" rx="8"></rect>
                        <text id="Daily-Q&amp;A-Session" fill="#181818" font-family="RobotoCondensed-Bold, Roboto Condensed" font-size="18" font-style="condensed" font-weight="bold">
                            <tspan x="16" y="112">Daily Q&amp;A Session</tspan>
                        </text>
                    </g>
                    <g id="Group-940-Copy-2" transform="translate(53.000000, 28.000000)" fill-rule="nonzero">
                        <g id="Group-11">
                            <g id="conversation" transform="translate(0.848739, 0.848739)">
                                <path d="M30.8598553,0 L26.2831826,0 C11.7905967,0 0,11.4199892 0,25.4570373 C0,39.4940855 11.7905967,50.9138995 26.2830018,50.9138995 L30.8596745,50.9138995 C33.1216998,50.9138995 35.3605787,50.6355896 37.5305606,50.0856254 L44.2913201,56.6301994 C44.6372514,56.9649069 45.0994575,57.1428571 45.5699819,57.1428571 C45.8030741,57.1428571 46.0381555,57.0992453 46.2618445,57.0093945 C46.9374322,56.7382656 47.3779385,56.0996766 47.3779385,55.3913788 L47.3779385,45.2580256 C50.2403255,43.0128055 52.6180832,40.1766366 54.2867993,37.0082122 C56.1820976,33.4096248 57.1428571,29.5232695 57.1428571,25.4570373 C57.1428571,11.4199892 45.3522604,0 30.8598553,0 Z" id="Shape" fill="#8900FF"></path>
                                <path d="M39.9753845,17.2429348 C39.6345528,12.6304364 35.6484986,8.91223616 30.7034861,8.59430757 C27.9003046,8.41474291 25.2251417,9.29670283 23.1775531,11.0797909 C21.158072,12.8382027 20,15.3239064 20,17.8997229 C20,19.1165764 21.0576885,20.1029703 22.3619662,20.1029703 C23.666244,20.1029703 24.7239324,19.1165764 24.7239324,17.8997229 C24.7239324,16.5207103 25.3196203,15.2426065 26.4009284,14.3011589 C27.4812918,13.3605926 28.8932752,12.8950465 30.3789519,12.9906674 C32.9837283,13.1581142 35.0832801,15.1165808 35.2627895,17.5461017 C35.4441885,19.9998583 33.7182998,22.1682943 31.1593456,22.7023615 C29.0860116,23.1350793 27.6381263,24.8157164 27.6381263,26.7891651 L27.6381263,32.0824669 C27.6381263,33.2993204 28.6958148,34.2857143 30.0000926,34.2857143 C31.3046065,34.2857143 32.3620588,33.2993204 32.3618226,32.0824669 L32.3618226,26.9652045 C37.1211845,25.8926637 40.3143266,21.8303162 39.9753845,17.2429348 Z" id="Path" fill="#FFFFFF"></path>
                                <path d="M31.5998319,37.98 C31.0684034,37.4485714 30.3312605,37.1428571 29.5798319,37.1428571 C28.8284034,37.1428571 28.0912605,37.4485714 27.5598319,37.98 C27.0284034,38.5114286 26.7226891,39.2485714 26.7226891,40 C26.7226891,40.7542857 27.0286891,41.4914286 27.5598319,42.0228571 C28.0912605,42.5542857 28.8284034,42.8571429 29.5798319,42.8571429 C30.3312605,42.8571429 31.0684034,42.5542857 31.5998319,42.0228571 C32.1312605,41.4885714 32.4369748,40.7542857 32.4369748,40 C32.4369748,39.2485714 32.1309748,38.5114286 31.5998319,37.98 Z" id="Path" fill="#FFFFFF"></path>
                            </g>
                        </g>
                    </g>
                </g>
            </g>
        </g>
    </g>
</svg>