<?xml version="1.0" encoding="UTF-8"?>
<svg width="24px" height="24px" viewBox="0 0 24 24" version="1.1" xmlns="http://www.w3.org/2000/svg" xmlns:xlink="http://www.w3.org/1999/xlink">
    <!-- Generator: Sketch 56 (81588) - https://sketch.com -->
    <title>acm</title>
    <desc>Created with Sketch.</desc>
    <g id="Page-1" stroke="none" stroke-width="1" fill="none" fill-rule="evenodd">
        <g id="Artboard-2-Copy-4" transform="translate(-718.000000, -3526.000000)" fill-rule="nonzero">
            <g id="acm" transform="translate(718.000000, 3526.000000)">
                <path d="M7.435,12.25 C7.35598979,12.2744379 7.28580144,12.321346 7.233,12.385 C7.18467623,12.457363 7.16019991,12.5430302 7.163,12.63 C7.163,12.78 7.201,12.882 7.283,12.938 C7.36,12.994 7.477,13.02 7.635,13.02 C7.82634144,13.0092214 8.00724093,12.929256 8.144,12.795 L8.144,12.135 C7.976,12.15 7.841,12.165 7.739,12.18 C7.634,12.19 7.532,12.214 7.434,12.25 L7.435,12.25 Z M12,0 L0,12 L12,24 L24,12 L12,0 Z M12,19.357 C7.93752705,19.3553444 4.64465556,16.062473 4.643,12 C4.64520629,7.93759346 7.9375938,4.64475844 12,4.642 C16.0628633,4.64365591 19.3558963,7.93713653 19.357,12 C19.3553444,16.062473 16.062473,19.3553444 12,19.357 Z M12,5.377 L12,5.379 C8.346,5.379 5.38,8.345 5.38,11.999 C5.38,15.653 8.346,18.619 12,18.619 C15.654,18.619 18.62,15.653 18.62,11.999 C18.6188973,8.34284622 15.6561529,5.3787592 12,5.376 L12,5.377 Z M9.138,13.623 L8.143,13.623 L8.143,13.287 L7.961,13.441 C7.81897417,13.5494487 7.6568447,13.628644 7.484,13.674 C7.402,13.694 7.282,13.709 7.132,13.709 C6.86975859,13.7155562 6.6167072,13.6122329 6.434,13.424 C6.24733238,13.2334524 6.14717605,12.9745646 6.157,12.708 C6.157,12.47 6.203,12.281 6.297,12.134 C6.397,11.984 6.537,11.864 6.702,11.786 C6.907,11.696 7.125,11.634 7.348,11.606 C7.598,11.573 7.864,11.546 8.151,11.528 L8.151,11.511 C8.151,11.335 8.085,11.214 7.955,11.148 C7.825,11.078 7.633,11.046 7.375,11.046 C7.258,11.046 7.121,11.066 6.965,11.109 C6.807,11.153 6.657,11.209 6.507,11.273 L6.42,11.273 L6.42,10.503 C6.517,10.473 6.676,10.441 6.9,10.403 C7.117,10.363 7.338,10.343 7.563,10.343 C8.113,10.343 8.513,10.435 8.763,10.619 C9.013,10.802 9.138,11.081 9.138,11.456 L9.138,13.624 L9.138,13.623 Z M12.358,13.456 C12.288,13.484 12.224,13.512 12.158,13.542 C12.084,13.572 12.008,13.6 11.928,13.622 C11.8386334,13.6447508 11.7485912,13.6647602 11.658,13.682 C11.5467627,13.6982514 11.4344067,13.705608 11.322,13.704 C11.059,13.704 10.816,13.671 10.599,13.604 C10.3892997,13.5434401 10.1949608,13.4387699 10.029,13.297 C9.86558362,13.1553385 9.73780491,12.977202 9.656,12.777 C9.56150056,12.5426766 9.51557241,12.2916027 9.521,12.039 C9.513,11.769 9.563,11.504 9.667,11.259 C9.757,11.055 9.891,10.875 10.059,10.729 C10.224,10.595 10.414,10.496 10.619,10.439 C10.839,10.373 11.066,10.343 11.294,10.343 C11.664,10.343 12.026,10.43 12.354,10.598 L12.354,11.452 L12.227,11.452 C12.1796283,11.408774 12.1305911,11.3674094 12.08,11.328 C12.0211611,11.2805525 11.9582505,11.238389 11.892,11.202 C11.7246482,11.1065839 11.5346044,11.0582092 11.342,11.062 C11.088,11.062 10.892,11.148 10.752,11.325 C10.614,11.502 10.542,11.739 10.542,12.039 C10.542,12.359 10.617,12.599 10.767,12.754 C10.9219028,12.9130051 11.137217,12.9984761 11.359,12.989 C11.469,12.989 11.581,12.976 11.689,12.947 C11.8423591,12.9038313 11.9841426,12.8269607 12.104,12.722 C12.152,12.682 12.192,12.64 12.227,12.612 L12.357,12.612 L12.357,13.455 L12.358,13.456 Z M16.691,13.629 L16.691,12.032 C16.691,11.875 16.691,11.742 16.684,11.635 C16.6818954,11.544998 16.6643049,11.4560309 16.632,11.372 C16.609829,11.3069929 16.5631959,11.2531855 16.502,11.222 C16.3489152,11.158186 16.1765455,11.1589072 16.024,11.224 C15.938,11.264 15.856,11.311 15.78,11.364 L15.78,13.627 L14.787,13.627 L14.787,12.032 C14.787,11.876 14.784,11.746 14.777,11.636 C14.7740088,11.5459524 14.7571438,11.4569051 14.727,11.372 C14.7011606,11.3072843 14.6528826,11.2540365 14.591,11.222 C14.5128038,11.1859273 14.4269954,11.1694521 14.341,11.174 C14.2578182,11.1744784 14.1758037,11.1936151 14.101,11.23 C14.023,11.27 13.949,11.316 13.873,11.366 L13.873,13.628 L12.878,13.628 L12.878,10.44 L13.871,10.44 L13.871,10.796 C14.015,10.671 14.167,10.563 14.331,10.473 C14.479,10.393 14.645,10.353 14.815,10.353 C14.996256,10.3490675 15.1747747,10.3976913 15.329,10.493 C15.482,10.593 15.599,10.737 15.669,10.907 C15.859,10.73 16.039,10.593 16.209,10.497 C16.4853278,10.333489 16.8219356,10.3076245 17.12,10.427 C17.235,10.471 17.34,10.543 17.42,10.637 C17.51,10.743 17.58,10.867 17.62,11.001 C17.665,11.143 17.686,11.329 17.686,11.554 L17.686,13.63 L16.691,13.63 L16.691,13.629 Z" id="Shape" fill="#24BBB6"></path>
                <rect id="Rectangle" fill-opacity="0" fill="#000000" x="0" y="0" width="24" height="24"></rect>
            </g>
        </g>
    </g>
</svg>