<?xml version="1.0" encoding="UTF-8"?>
<svg width="112px" height="96px" viewBox="0 0 112 96" version="1.1" xmlns="http://www.w3.org/2000/svg" xmlns:xlink="http://www.w3.org/1999/xlink">
    <!-- Generator: Sketch 56 (81588) - https://sketch.com -->
    <title>Group-2-Copy-2</title>
    <desc>Created with Sketch.</desc>
    <g id="Page-1" stroke="none" stroke-width="1" fill="none" fill-rule="evenodd">
        <g id="Artboard-2-Copy-3" transform="translate(-319.000000, -862.000000)">
            <g id="1" transform="translate(262.000000, 107.000000)">
                <g id="Group-Copy-6" transform="translate(57.791999, 755.327988)">
                    <g id="Group-2-Copy-2">
                        <rect id="Rectangle" fill="#FFEBCC" fill-rule="nonzero" x="0" y="0" width="110.879998" height="95.4239984" rx="5.37599991"></rect>
                        <g id="Group-20-Copy" transform="translate(38.975999, 20.832000)">
                            <circle id="Oval" fill="#FF9B00" fill-rule="nonzero" cx="16.3295986" cy="16.3295986" r="16.3295986"></circle>
                            <g id="noun_Banned-User_418543-Copy" transform="translate(8.064000, 6.048000)" fill="#FFFFFF">
                                <path d="M10.7589149,10.0235928 C12.2456997,8.85553186 13.2459003,6.68239521 13.2459003,4.61791539 C13.2459003,1.62985249 11.1373692,0 8.51522162,0 C5.89307401,0 3.78454294,1.62985249 3.78454294,4.61791539 C3.78454294,6.68239521 4.78474357,8.88269607 6.2715283,10.0235928 C2.64918006,10.8385191 0,13.5277757 0,16.0268828 C0,19.0149457 3.81157539,20.6447982 8.51522162,20.6447982 C9.38026,20.6447982 10.2182659,20.5904698 11.0292394,20.481813 C10.1371686,19.7212151 9.5965196,18.6346468 9.5965196,17.3850932 C9.5965196,15.1304639 11.4076937,13.310462 13.651387,13.310462 C14.9489446,13.310462 16.1113399,13.9352388 16.8682485,14.8859861 C16.2194697,12.7671778 13.8406142,10.7298622 10.7589149,10.0235928 Z" id="Path"></path>
                                <path d="M17.4719997,17.4719997 C17.4719997,15.6169997 15.9669997,14.1119998 14.1119998,14.1119998 C12.2569998,14.1119998 10.7519998,15.6169997 10.7519998,17.4719997 C10.7519998,19.3269997 12.2569998,20.8319997 14.1119998,20.8319997 C15.9669997,20.8319997 17.4719997,19.3269997 17.4719997,17.4719997 Z M11.8019998,17.4719997 C11.8019998,16.2119997 12.8519998,15.1619998 14.1119998,15.1619998 C14.5669998,15.1619998 14.9519998,15.3019998 15.3369997,15.5119997 L12.1519998,18.6969997 C11.9419998,18.3119997 11.8019998,17.9269997 11.8019998,17.4719997 Z M16.0719997,16.2469997 C16.2819997,16.5969997 16.4219997,17.0169997 16.4219997,17.4719997 C16.4219997,18.7319997 15.3719997,19.7819997 14.1119998,19.7819997 C13.6569998,19.7819997 13.2369998,19.6419997 12.8869998,19.4319997 L16.0719997,16.2469997 Z" id="Shape" fill-rule="nonzero"></path>
                            </g>
                        </g>
                        <text id="Inactivity-Period" fill="#181818" font-family="RobotoCondensed-Bold, Roboto Condensed" font-size="12.0959998" font-style="condensed" font-weight="bold">
                            <tspan x="16.1279997" y="74.839999">Inactivity Period</tspan>
                        </text>
                    </g>
                </g>
            </g>
        </g>
    </g>
</svg>