<?xml version="1.0" encoding="UTF-8"?>
<svg width="165px" height="142px" viewBox="0 0 165 142" version="1.1" xmlns="http://www.w3.org/2000/svg" xmlns:xlink="http://www.w3.org/1999/xlink">
    <!-- Generator: Sketch 56 (81588) - https://sketch.com -->
    <title>Group-2-Copy</title>
    <desc>Created with Sketch.</desc>
    <g id="Page-1" stroke="none" stroke-width="1" fill="none" fill-rule="evenodd">
        <g id="Artboard-2-Copy" transform="translate(-118.000000, -5797.000000)">
            <g id="1" transform="translate(89.000000, 5378.000000)">
                <g id="Group-2-Copy" transform="translate(29.000000, 419.000000)">
                    <rect id="Rectangle" fill="#FFFFFF" fill-rule="nonzero" x="0" y="0" width="165" height="142" rx="8"></rect>
                    <g id="Group-940-Copy-2" transform="translate(53.000000, 25.000000)">
                        <circle id="Oval" fill="#00CE7D" fill-rule="nonzero" cx="29" cy="29" r="29"></circle>
                        <g id="Group-1011-Copy" transform="translate(13.000000, 12.000000)">
                            <path d="M16.4453987,29.9914272 C12.8591128,33.6696692 6.98793559,33.6696692 3.40023048,29.9914272 C-0.187474622,26.3131853 -0.187474622,20.291465 3.40164967,16.6117675 L16.4453987,3.23065217 C20.0316846,-0.447589792 25.9028619,-0.447589792 29.490567,3.23065217 C33.0796913,6.91034972 33.0796913,12.9320699 29.490567,16.6117675 L16.4453987,29.9914272 L16.4453987,29.9914272 Z" id="Stroke-753" fill="#FFFFFF" fill-rule="nonzero"></path>
                            <path d="M9.97373188,10.2294686 L22.6675725,23.2487923" id="Stroke-754" stroke="#00CE7D" stroke-width="1.26125999" stroke-linejoin="round"></path>
                            <path d="M15.4433107,9.40579017 L18.4519874,6.31705671 C20.6701769,4.04344612 24.264978,4.04344612 26.4803291,6.31705671" id="Stroke-755" stroke="#00CE7D" stroke-width="1.26125999" stroke-linecap="round" stroke-linejoin="round"></path>
                        </g>
                    </g>
                    <g id="Medicine-Reminder" transform="translate(13.000000, 95.000000)" fill="#181818" font-family="RobotoCondensed-Bold, Roboto Condensed" font-size="18" font-style="condensed" font-weight="bold">
                        <text>
                            <tspan x="0" y="17">Medicine Reminder</tspan>
                        </text>
                    </g>
                </g>
            </g>
        </g>
    </g>
</svg>