<?xml version="1.0" encoding="UTF-8"?>
<svg width="112px" height="96px" viewBox="0 0 112 96" version="1.1" xmlns="http://www.w3.org/2000/svg" xmlns:xlink="http://www.w3.org/1999/xlink">
    <!-- Generator: Sketch 56 (81588) - https://sketch.com -->
    <title>Group</title>
    <desc>Created with Sketch.</desc>
    <g id="Page-1" stroke="none" stroke-width="1" fill="none" fill-rule="evenodd">
        <g id="Artboard-2-Copy-3" transform="translate(-319.000000, -546.000000)">
            <g id="1" transform="translate(262.000000, 107.000000)">
                <g id="Group" transform="translate(57.791999, 439.487993)">
                    <g id="Group-2-Copy-2">
                        <rect id="Rectangle" fill="#FAEDFF" fill-rule="nonzero" x="0" y="0" width="110.879998" height="95.4239984" rx="5.37599991"></rect>
                        <text id="Daily-Q&amp;A-Session" fill="#181818" font-family="RobotoCondensed-Bold, Roboto Condensed" font-size="12.0959998" font-style="condensed" font-weight="bold">
                            <tspan x="10.7519998" y="74.839999">Daily Q&amp;A Session</tspan>
                        </text>
                    </g>
                    <g id="Group-940-Copy-2" transform="translate(35.615999, 18.816000)" fill-rule="nonzero">
                        <g id="Group-11">
                            <g id="conversation" transform="translate(0.570353, 0.570353)">
                                <path d="M20.7378224,0 L17.6622984,0 C7.92328085,0 0,7.67423262 0,17.1071288 C0,26.540025 7.92328085,34.2141399 17.6621769,34.2141399 L20.7377009,34.2141399 C22.2577819,34.2141399 23.7623085,34.0271157 25.2205363,33.6575397 L29.7637666,38.0554934 C29.9962325,38.2804168 30.3068349,38.3999993 30.6230273,38.3999993 C30.7796653,38.3999993 30.93764,38.3706922 31.087959,38.3103125 C31.5419539,38.1281139 31.8379742,37.6989821 31.8379742,37.2230059 L31.8379742,30.4133927 C33.7614982,28.9046048 35.3593513,26.9986994 36.4807285,24.8695182 C37.754369,22.4512675 38.3999993,19.8396368 38.3999993,17.1071288 C38.3999993,7.67423262 30.4767185,0 20.7378224,0 Z" id="Shape" fill="#8900FF"></path>
                                <path d="M26.8634579,11.587252 C26.634419,8.48765312 23.9557907,5.9890226 20.6327423,5.77537459 C18.7490044,5.65470714 16.9512949,6.2473842 15.5753154,7.44561936 C14.2182242,8.62727207 13.4399998,10.2976649 13.4399998,12.0286136 C13.4399998,12.8463391 14.1507664,13.5091958 15.027241,13.5091958 C15.9037157,13.5091958 16.6144823,12.8463391 16.6144823,12.0286136 C16.6144823,11.1019171 17.0147846,10.2430314 17.7414236,9.61037862 C18.4674278,8.97831808 19.4162806,8.66547111 20.4146553,8.72972835 C22.1650651,8.8422526 23.5759638,10.1583421 23.6965942,11.7909801 C23.8184943,13.4399046 22.6586971,14.8970935 20.9390799,15.2559867 C19.5457995,15.546773 18.5728206,16.6761611 18.5728206,18.0023187 L18.5728206,21.5594174 C18.5728206,22.3771429 19.2835872,23.0399996 20.1600619,23.0399996 C21.0366952,23.0399996 21.7473032,22.3771429 21.7471444,21.5594174 L21.7471444,18.1206171 C24.9454356,17.3998697 27.091227,14.6699722 26.8634579,11.587252 Z" id="Path" fill="#FFFFFF"></path>
                                <path d="M21.2350867,25.5225596 C20.8779667,25.1654396 20.3826067,24.9599996 19.8776467,24.9599996 C19.3726868,24.9599996 18.8773267,25.1654396 18.5202067,25.5225596 C18.1630868,25.8796796 17.9576468,26.3750396 17.9576468,26.8799996 C17.9576468,27.3868795 18.1632788,27.8822396 18.5202067,28.2393595 C18.8773267,28.5964795 19.3726868,28.7999996 19.8776467,28.7999996 C20.3826067,28.7999996 20.8779667,28.5964795 21.2350867,28.2393595 C21.5922067,27.8803195 21.7976467,27.3868795 21.7976467,26.8799996 C21.7976467,26.3750396 21.5920147,25.8796796 21.2350867,25.5225596 Z" id="Path" fill="#FFFFFF"></path>
                            </g>
                        </g>
                    </g>
                </g>
            </g>
        </g>
    </g>
</svg>