<svg xmlns="http://www.w3.org/2000/svg" width="149.412" height="25.591" viewBox="0 0 149.412 25.591"><g transform="translate(-0.428)"><path d="M50.2,73.533a2.779,2.779,0,0,1-.268,1.193,3.107,3.107,0,0,1-.722.96,3.274,3.274,0,0,1-1.026.662,3.477,3.477,0,0,1-1.246.227,3.364,3.364,0,0,1-1.193-.227,3.274,3.274,0,0,1-1.038-.632,3.018,3.018,0,0,1-.722-.96,2.708,2.708,0,0,1-.274-1.193V59.13H37.19v14.8a8.522,8.522,0,0,0,.525,2.982,8.809,8.809,0,0,0,1.473,2.559,9.482,9.482,0,0,0,2.242,1.968,10.819,10.819,0,0,0,2.8,1.3,10.669,10.669,0,0,0,1.336.334,8.088,8.088,0,0,0,1.372.119,8.392,8.392,0,0,0,1.384-.119,10.432,10.432,0,0,0,1.354-.334,10.908,10.908,0,0,0,2.8-1.276,9.572,9.572,0,0,0,2.236-1.968,8.809,8.809,0,0,0,1.449-2.547,8.522,8.522,0,0,0,.531-2.982V59.13H50.2Z" transform="translate(-36.762 -59.076)" fill="#a118c2"/><path d="M91.371,72.089,83,59.13H76.61V83.158h6.417V70.324l8.343,12.834h6.447V59.13H91.371Z" transform="translate(-51.008 -59.076)" fill="#a118c2"/><path d="M132.211,59.18l-4.246,8.373-4.282-8.373H116.12l8.4,15.751v8.278h6.852V74.931l8.4-15.751Z" transform="translate(-65.148 -59.096)" fill="#a118c2"/><path d="M214.7,73.533a2.78,2.78,0,0,1-.268,1.193,3.107,3.107,0,0,1-.722.96,3.412,3.412,0,0,1-1.038.662,3.5,3.5,0,0,1-1.246.227,3.4,3.4,0,0,1-2.26-.859,3.2,3.2,0,0,1-.734-.96,2.779,2.779,0,0,1-.268-1.193V59.13H201.68v14.8a8.522,8.522,0,0,0,.525,2.982,8.809,8.809,0,0,0,1.455,2.582,9.482,9.482,0,0,0,2.242,1.968,10.818,10.818,0,0,0,2.8,1.276,10.672,10.672,0,0,0,1.336.334,8.087,8.087,0,0,0,1.372.119,8.268,8.268,0,0,0,1.378-.119,10.2,10.2,0,0,0,1.354-.334,10.818,10.818,0,0,0,2.8-1.276,9.482,9.482,0,0,0,2.242-1.968,8.808,8.808,0,0,0,1.491-2.547,8.523,8.523,0,0,0,.525-2.982V59.13H214.7Z" transform="translate(-96.068 -59.076)" fill="#a118c2"/><path d="M259.822,64.867V59.13H240.63V83.188h19.192v-5.7h-12.93V74.046h12.184V68.308H246.892V64.867Z" transform="translate(-109.982 -59.076)" fill="#a118c2"/><path d="M177.233,77.617a11.767,11.767,0,0,0,1.425-2.982,11.927,11.927,0,0,0,.531-3.531,11.725,11.725,0,0,0-.954-4.688,12.1,12.1,0,0,0-6.441-6.423,11.7,11.7,0,0,0-4.7-.954,11.892,11.892,0,0,0-4.7.936,12.136,12.136,0,0,0-3.853,2.564,12.3,12.3,0,0,0-2.606,3.8A11.409,11.409,0,0,0,155,70.991a11.766,11.766,0,0,0,.37,2.931,12.524,12.524,0,0,0,1.037,2.735,11.868,11.868,0,0,0,1.652,2.386A12.155,12.155,0,0,0,160.272,81a11.486,11.486,0,0,0,3.31,1.539,13.12,13.12,0,0,0,3.632.513,11.373,11.373,0,0,0,3.131-.382c.25-.072.513-.161.775-.262l1.628,2.219h6.471l-3.68-5.022a11.5,11.5,0,0,0,1.694-1.992Zm-6.381-4.33h-6.471l3.036,4.139h-.179a6.018,6.018,0,0,1-2.427-.483,5.916,5.916,0,0,1-1.932-1.33,6.286,6.286,0,0,1-1.789-4.4,6.1,6.1,0,0,1,3.692-5.666,5.886,5.886,0,0,1,2.386-.483,5.755,5.755,0,0,1,2.386.5,6.089,6.089,0,0,1,1.932,1.348,6.226,6.226,0,0,1,1.288,1.962,5.963,5.963,0,0,1,.471,2.386,6.22,6.22,0,0,1-.6,2.7h0l-.31.555c-.078.131-.179.28-.286.435Z" transform="translate(-79.033 -59.04)" fill="#a118c2"/></g></svg>